<?xml version="1.0" standalone="no"?><!DOCTYPE svg PUBLIC "-//W3C//DTD SVG 1.1//EN" "http://www.w3.org/Graphics/SVG/1.1/DTD/svg11.dtd"><svg t="1687070300815" class="icon" viewBox="0 0 1024 1024" version="1.1" xmlns="http://www.w3.org/2000/svg" p-id="2058" xmlns:xlink="http://www.w3.org/1999/xlink" width="200" height="200"><path d="M893.7984 478.9248c-3.4816-2.56-7.936-3.328-12.0832-2.0992l-167.424 50.944V410.2144c0-7.5776-6.144-13.6704-13.6704-13.6704h-11.6224c0.1024-1.8432 0.1536-3.6864 0.1536-5.5296 0-77.0048-62.6688-139.6224-139.6736-139.6224-57.344 0-106.7008 34.7136-128.1536 84.2752C399.872 286.1056 350.464 251.392 293.12 251.392c-77.0048 0-139.6224 62.6176-139.6224 139.6224 0 1.8432 0 3.6864 0.1024 5.5296h-5.2224a13.6704 13.6704 0 0 0-13.6704 13.6704V503.296h-47.3088a13.6704 13.6704 0 0 0-13.6704 13.6704v128.256a13.6704 13.6704 0 0 0 13.6704 13.6704h47.3088v134.912c0 22.8352 18.5856 41.3696 41.3696 41.3696h496.8448c22.8352 0 41.3696-18.5344 41.3696-41.3696v-70.6048l167.424 50.944c1.28 0.3584 2.6112 0.5632 3.9424 0.5632 2.9184 0 5.7856-0.9216 8.1408-2.6624a13.7216 13.7216 0 0 0 5.5296-11.008V489.9328c0-4.352-2.048-8.3968-5.5296-11.008z m-759.0912 152.576h-33.6384v-100.864h33.6384v100.864z m414.7712-352.768c61.952 0 112.2816 50.3808 112.2816 112.2816 0 1.8432 0 3.6864-0.1024 5.5296h-31.1296c0.1536-1.8432 0.2048-3.6864 0.2048-5.5296 0-44.8-36.4544-81.2544-81.2544-81.2544s-81.2032 36.4544-81.2032 81.2544c0 1.8432 0.0512 3.6864 0.1536 5.5296h-31.0784c-0.1024-1.8432-0.1536-3.6864-0.1536-5.5296 0-61.9008 50.3808-112.2816 112.2816-112.2816z m53.9136 112.2816c0 1.8432-0.1024 3.6864-0.3072 5.5296H495.872c-0.1536-1.8432-0.256-3.6864-0.256-5.5296 0-29.696 24.1664-53.8624 53.8624-53.8624 29.7472 0 53.9136 24.1664 53.9136 53.8624z m-310.272-112.2816c61.9008 0 112.2816 50.3808 112.2816 112.2816 0 1.8432-0.0512 3.6864-0.1024 5.5296h-31.1296c0.1024-1.8432 0.1536-3.6864 0.1536-5.5296 0-44.8-36.4032-81.2544-81.2032-81.2544s-81.2544 36.4544-81.2544 81.2544c0 1.8432 0.0512 3.6864 0.2048 5.5296h-31.1296c-0.0512-1.8432-0.1024-3.6864-0.1024-5.5296 0-61.9008 50.3808-112.2816 112.2816-112.2816z m53.8624 112.2816c0 1.8432-0.1024 3.6864-0.256 5.5296H239.5136c-0.2048-1.8432-0.3072-3.6864-0.3072-5.5296 0-29.696 24.2176-53.8624 53.9136-53.8624 29.696 0 53.8624 24.1664 53.8624 53.8624z m339.968 402.7904c0 7.7312-6.2976 14.0288-14.0288 14.0288H176.0768c-7.7312 0-13.9776-6.2976-13.9776-14.0288V485.9392h490.24c6.4512 0 11.7248-5.2736 11.7248-11.7248 0-1.024-0.1536-1.9968-0.4096-2.9184a11.57632 11.57632 0 0 0-10.4448-8.7552c-0.3072-0.0512-0.6144-0.0512-0.8704-0.0512H162.0992v-38.6048h524.8512v369.92z m185.0368-51.2l-154.9824-47.1552V555.52l90.3168-27.4432v164.4544c0 6.5024 5.2224 11.7248 11.6736 11.7248 6.5024 0 11.7248-5.2224 11.7248-11.7248v-171.6224l41.2672-12.544v234.24z" fill="#2B3F75" p-id="2059"></path><path d="M346.9824 391.0144c0 1.8432-0.1024 3.6864-0.256 5.5296H239.5136c-0.2048-1.8432-0.3072-3.6864-0.3072-5.5296 0-29.696 24.2176-53.8624 53.9136-53.8624 29.696 0 53.8624 24.1664 53.8624 53.8624zM603.392 391.0144c0 1.8432-0.1024 3.6864-0.3072 5.5296H495.872c-0.1536-1.8432-0.256-3.6864-0.256-5.5296 0-29.696 24.1664-53.8624 53.8624-53.8624 29.7472 0 53.9136 24.1664 53.9136 53.8624zM871.9872 508.3648v234.24l-154.9824-47.1552V555.52l90.3168-27.4432v164.4544c0 6.5024 5.2224 11.7248 11.6736 11.7248 6.5024 0 11.7248-5.2224 11.7248-11.7248v-171.6224l41.2672-12.544z" fill="#F5F3EB" p-id="2060"></path><path d="M661.76 391.0144c0 1.8432 0 3.6864-0.1024 5.5296h-31.1296c0.1536-1.8432 0.2048-3.6864 0.2048-5.5296 0-44.8-36.4544-81.2544-81.2544-81.2544s-81.2032 36.4544-81.2032 81.2544c0 1.8432 0.0512 3.6864 0.1536 5.5296h-31.0784c-0.1024-1.8432-0.1536-3.6864-0.1536-5.5296 0-61.9008 50.3808-112.2816 112.2816-112.2816 61.952 0 112.2816 50.3808 112.2816 112.2816zM405.4016 391.0144c0 1.8432-0.0512 3.6864-0.1024 5.5296h-31.1296c0.1024-1.8432 0.1536-3.6864 0.1536-5.5296 0-44.8-36.4032-81.2544-81.2032-81.2544s-81.2544 36.4544-81.2544 81.2544c0 1.8432 0.0512 3.6864 0.2048 5.5296h-31.1296c-0.0512-1.8432-0.1024-3.6864-0.1024-5.5296 0-61.9008 50.3808-112.2816 112.2816-112.2816s112.2816 50.3808 112.2816 112.2816zM101.0688 530.6368h33.6384v100.864h-33.6384z" fill="#DF6D43" p-id="2061"></path><path d="M162.0992 423.8848v38.6048h490.24c0.256 0 0.5632 0 0.8704 0.0512 5.0688 0.3584 9.2672 3.9424 10.4448 8.7552 0.256 0.9216 0.4096 1.8944 0.4096 2.9184 0 6.4512-5.2736 11.7248-11.7248 11.7248H162.0992v307.8656c0 7.7312 6.2464 14.0288 13.9776 14.0288h496.8448c7.7312 0 14.0288-6.2976 14.0288-14.0288V423.8848H162.0992z m369.2544 203.8272l-146.4832 84.5824c-2.1504 1.2288-4.5056 1.792-6.8608 1.792-2.3552 0-4.7104-0.5632-6.8096-1.792a13.696 13.696 0 0 1-6.8608-11.8784v-169.1136c0-4.9152 2.6112-9.4208 6.8608-11.8784 4.1984-2.4576 9.4208-2.4576 13.6704 0l146.4832 84.5824a13.67552 13.67552 0 1 1 0 23.7056z" fill="#5577D1" p-id="2062"></path><path d="M531.3536 604.0064l-146.4832-84.5824c-4.2496-2.4576-9.472-2.4576-13.6704 0-4.2496 2.4576-6.8608 6.9632-6.8608 11.8784v169.1136c0 4.9152 2.6112 9.4208 6.8608 11.8784 2.0992 1.2288 4.4544 1.792 6.8096 1.792 2.3552 0 4.7104-0.5632 6.8608-1.792l146.4832-84.5824a13.67552 13.67552 0 0 0 0-23.7056zM391.68 676.7616v-121.8048l105.5232 60.928-105.5232 60.8768z" fill="#2B3F75" p-id="2063"></path><path d="M497.2032 615.8848L391.68 676.7616v-121.8048z" fill="#DF6D43" p-id="2064"></path></svg>